<svg viewBox="0 0 200 200" xmlns="http://www.w3.org/2000/svg">
    <path fill="#B039CC"
        d="M34.6,-59.3C45.2,-53.8,54.5,-45.3,59.3,-34.9C64.1,-24.5,64.5,-12.3,65.1,0.3C65.6,12.9,66.3,25.8,59.7,33.1C53.1,40.3,39.1,41.9,27.9,47.4C16.7,52.8,8.4,62.2,-3.5,68.3C-15.4,74.3,-30.8,77.2,-42.3,71.9C-53.8,66.6,-61.5,53.3,-62.6,39.9C-63.6,26.6,-58.1,13.3,-58.4,-0.2C-58.7,-13.6,-64.8,-27.3,-60.8,-35.5C-56.7,-43.7,-42.5,-46.4,-30.7,-51.2C-18.9,-56,-9.4,-62.9,1.3,-65.1C12,-67.3,24,-64.8,34.6,-59.3Z"
        transform="translate(100 100)" />
</svg>